<?xml version="1.0"?>
<!--Icons from directory ""-->
<svg xmlns="http://www.w3.org/2000/svg" width="181" height="1820" viewBox="0 0 181 1820"><svg width="22" viewBox="-5 -5 22 22" height="22" id="cart" y="0"><path d="m11.864 3.017a0.429 0.429 0 0 0 -0.327 -0.154h-2.312v1.227c0 0.563-0.484 1.022-1.08 1.022-0.594 0-1.078-0.458-1.078-1.022v-1.227h-2.158v1.227c0 0.563-0.485 1.022-1.08 1.022s-1.078-0.458-1.078-1.022v-1.227h-2.313a0.43 0.43 0 0 0 -0.327 0.154 0.472 0.472 0 0 0 -0.108 0.358l0.776 7.134c0.015 0.806 0.642 1.455 1.411 1.455h7.595c0.77 0 1.396-0.649 1.411-1.455l0.776-7.134a0.476 0.476 0 0 0 -0.108 -0.358z"/><path d="m3.829 4.499c0.239 0 0.433-0.184 0.433-0.409v-2.25c0-0.632 0.672-1.022 1.295-1.022h1.079c0.655 0 1.078 0.401 1.078 1.022v2.25c0 0.225 0.194 0.409 0.431 0.409 0.239 0 0.433-0.184 0.433-0.409v-2.25c-0.001-1.067-0.817-1.84-1.942-1.84h-1.079c-1.19 0-2.159 0.826-2.159 1.84v2.25c0 0.225 0.194 0.409 0.431 0.409z"/></svg><svg width="33" viewBox="-5 -5 33 33" height="33" id="checkbox-off" y="22"><path d="m20 2c0.542 0 1 0.458 1 1v17c0 0.542-0.458 1-1 1h-17c-0.542 0-1-0.458-1-1v-17c0-0.542 0.458-1 1-1h17m0-2h-17c-1.65 0-3 1.35-3 3v17c0 1.65 1.35 3 3 3h17c1.65 0 3-1.35 3-3v-17c0-1.65-1.35-3-3-3z"/></svg><svg width="37" viewBox="-5 -5 37 33" height="33" id="checkbox-on" y="55"><path d="m7.285 7.486l-2.829 2.829 7.783 7.783 13.932-13.932-2.828-2.829-11.104 11.102z"/><path d="m21 20c0 0.542-0.458 1-1 1h-17c-0.542 0-1-0.458-1-1v-17c0-0.542 0.458-1 1-1h16.908l1.585-1.585a2.96 2.96 0 0 0 -1.493 -0.415h-17c-1.65 0-3 1.35-3 3v17c0 1.65 1.35 3 3 3h17c1.65 0 3-1.35 3-3v-9.829l-2 2v7.829z"/></svg><svg width="20" viewBox="-5 -5 20 20" height="20" id="compare" y="88"><path d="m8 2h1.984v8h-1.984zm-8 1h1.984v7h-1.984zm4-3h2v10h-2z"/></svg><svg width="166" viewBox="-5 -5 166 198" height="198" id="credit" y="108"><g fill="#FFF"><circle cy="68.877" cx="141.25" r="14.75"/><path d="m89.113 139.54l-7.074 17.875-22.824 14.917a7.16 7.16 0 0 0 -3.634 6.23 7.167 7.167 0 0 0 7.167 7.167 7.121 7.121 0 0 0 4.121 -1.31c3.761-2.371 22.351-14.084 25.495-15.88 3.5-2 4.125-5.125 4.125-5.125l4.875-16-5.75-2.625c-5.75-2.625-6.501-5.249-6.501-5.249z"/><path d="m139.32 141.46s-1.158-3.834-4.579-5.167-18.087-7.75-18.087-7.75l15.416-25.584s3.834-9-0.333-13.417-13.75-9.75-13.75-9.75h-7.521l15.799-26.801c3.354-5.686 1.443-13.081-4.242-16.432l-49.397-29.113c-5.686-3.352-13.079-1.442-16.431 4.244l-47.058 79.828c-3.351 5.685-1.442 13.08 4.244 16.432l49.39 29.113c5.686 3.352 13.081 1.441 16.432-4.242l22.934-38.903h8.096l-14.75 26.209s-5.134 9.214-0.334 14.25c4.209 4.416 12.667 6.916 12.667 6.916l17.25 6.501 5.101 31.291 0.009-0.001c0.549 3.413 3.499 6.023 7.067 6.023a7.166 7.166 0 0 0 7.166 -7.167c0-0.189-0.014-0.375-0.028-0.56l0.028-0.004-5.095-35.915zm-121.36-41.26c-1.401-0.826-1.887-2.708-1.061-4.108l47.059-79.829c0.826-1.401 2.707-1.888 4.107-1.062l11.521 6.792-50.104 84.998-11.522-6.791zm53.498 28.054c-0.826 1.4-2.707 1.887-4.107 1.061l-30.116-17.754 50.107-84.997 30.113 17.753c1.402 0.826 1.887 2.707 1.062 4.107l-18.493 31.372h-8.783l-19.914 14.427a7.155 7.155 0 0 0 -1.23 0.891l-0.031 0.022 0.002 0.003a7.142 7.142 0 0 0 -2.358 5.304 7.167 7.167 0 0 0 7.167 7.167 7.121 7.121 0 0 0 4.149 -1.331l0.002 0.003 0.071-0.058c0.182-0.133 0.356-0.273 0.524-0.423l9.66-7.784-17.823 30.236z"/></g><path d="m49.219 5.943l-47.058 79.829c-3.351 5.685-1.442 13.08 4.244 16.432l49.39 29.113c5.686 3.352 13.081 1.441 16.432-4.242l47.057-79.829c3.354-5.686 1.443-13.081-4.242-16.432l-49.39-29.109c-5.685-3.352-13.079-1.442-16.431 4.243zm-39.305 84.4l47.059-79.829c0.826-1.401 2.707-1.888 4.107-1.062l11.521 6.792-50.105 84.998-11.522-6.791c-1.4-0.826-1.886-2.708-1.06-4.108zm101.62-47.667l-47.059 79.829c-0.826 1.4-2.707 1.887-4.107 1.061l-30.116-17.754 50.106-84.996 30.113 17.753c1.403 0.825 1.887 2.706 1.063 4.107z" fill="#F0C42E"/><g fill="#3A3A3A"><circle cy="63.083" cx="135.25" r="14.75"/><path d="m81.875 133.75l-7.074 17.875-22.825 14.917a7.16 7.16 0 0 0 -3.634 6.23 7.167 7.167 0 0 0 7.167 7.167 7.121 7.121 0 0 0 4.121 -1.31c3.761-2.371 22.351-14.084 25.495-15.88 3.5-2 4.125-5.125 4.125-5.125l4.875-16-5.75-2.625c-5.75-2.625-6.5-5.249-6.5-5.249zm50.205 1.92s-1.158-3.834-4.579-5.167-18.087-7.75-18.087-7.75l15.416-25.584s3.834-9-0.333-13.417-13.75-9.749-13.75-9.749h-26.75l-19.915 14.427a7.208 7.208 0 0 0 -1.23 0.891l-0.031 0.022 0.002 0.003a7.14 7.14 0 0 0 -2.358 5.303 7.167 7.167 0 0 0 7.167 7.167 7.121 7.121 0 0 0 4.149 -1.331l0.002 0.003 0.071-0.058c0.182-0.133 0.357-0.273 0.525-0.423l14.743-11.881h15.875l-14.75 26.209s-5.134 9.214-0.334 14.25c4.209 4.416 12.667 6.916 12.667 6.916l17.25 6.501 5.101 31.291 0.009-0.001c0.549 3.413 3.499 6.023 7.067 6.023a7.166 7.166 0 0 0 7.166 -7.167c0-0.189-0.014-0.375-0.028-0.56l0.028-0.004-5.093-35.913z"/></g></svg><svg width="146" viewBox="-5 -5 146 174" height="174" id="delivery" y="306"><g fill="#FFF"><path d="m93.133 38.767c8.121 0 14.945-5.542 16.9-13.049l5.467 0.814a2.159 2.159 0 0 0 2.451 -1.816 2.157 2.157 0 0 0 -1.816 -2.451l-5.541-0.825c0.002-0.046 0.004-0.091 0.004-0.138 0-0.182-0.006-0.362-0.014-0.542 0 0-0.451-6.518-1.074-9.237-0.621-2.719-2.535-3.296-2.535-3.296-9.77-2.212-19.772-2.438-22.375-2.438s-3.158 1.332-3.158 1.332l-3.15 4.996-0.01-0.003c-0.076 0.122-0.146 0.245-0.219 0.368l-0.027 0.043a17.387 17.387 0 0 0 -2.367 8.777c-0.001 9.646 7.819 17.465 17.464 17.465zm38.407 39.309v-0.002l-26.742-2.168-9.246-21.112s-0.461-2.774-6.008-8.476c-5.549-5.702-16.799-3.39-16.799-3.39s-23.886 4.469-31.745 6.318c-7.86 1.85-8.168 9.863-8.168 9.863l-0.632 4.519-15.178-2.941a3.012 3.012 0 0 0 -3.516 2.374l-7.416 38.239a3.008 3.008 0 0 0 2.375 3.516l51.196 9.923c0.115 0.022 0.23 0.024 0.346 0.033h0.002c-0.728 0.104-1.291-0.035-1.291-0.035l-9.4-1.849-3.082 17.105-23.56 20.363a7.43 7.43 0 1 0 9.857 11.086s27.725-22.05 29.575-23.591c1.85-1.54 2.773-3.853 2.773-3.853s4.541-13.948 5.779-16.874c0.848-2.004 4.932-1.079 4.932-1.079l22.885 8.631 7.615 29.062c0.082 0.63 0.242 1.234 0.473 1.804h0.002a7.428 7.428 0 0 0 14.112 -4.512c-0.842-4.965-4.604-27.046-5.561-31.826-1.078-5.394-4.621-6.934-4.621-6.934s-21.268-11.558-22.654-12.329c-1.387-0.77-1.078-2.774-1.078-2.774l3.93-14.331 2.773 5.856s1.619 3.274 4.084 3.391l33.357 0.82a7.43 7.43 0 0 0 7.43 -7.431 7.43 7.43 0 0 0 -6.804 -7.399zm-71.436-15.269l-1.789 5.88 9.898 1.919-20.214-3.917 0.548-2.496 11.557-1.386zm-2.249 45.473l-45.304-8.781 6.27-32.353 12.542 2.431-1.618 11.567-0.64 4.406c-0.005 0.026-0.008 0.056-0.012 0.082l-0.018 0.127h0.002a7.43 7.43 0 0 0 7.367 8.38 7.428 7.428 0 0 0 7.368 -8.366l2.901-13.223 17.413 3.374-6.271 32.356zm-32.805-91.272h38.027c1.1 0 2-0.896 2-1.99s-0.9-1.99-2-1.99h-38.027c-1.1 0-2 0.896-2 1.99s0.9 1.99 2 1.99zm13.03 6.017c-1.1 0-2 0.896-2 1.99s0.9 1.99 2 1.99h22.959c1.1 0 2-0.896 2-1.99a2 2 0 0 0 -2 -1.99h-22.959z"/></g><path d="m87.098 32.732c8.121 0 14.945-5.542 16.9-13.049l5.467 0.814a2.159 2.159 0 0 0 2.451 -1.816 2.157 2.157 0 0 0 -1.816 -2.451l-5.541-0.825c0.002-0.046 0.004-0.091 0.004-0.138 0-0.182-0.006-0.362-0.014-0.542 0 0-0.451-6.518-1.074-9.237-0.621-2.719-2.535-3.296-2.535-3.296-9.77-2.212-19.772-2.438-22.376-2.438s-3.158 1.332-3.158 1.332l-3.15 4.996-0.01-0.003c-0.076 0.121-0.146 0.245-0.219 0.368l-0.027 0.043a17.387 17.387 0 0 0 -2.367 8.777c0 9.646 7.82 17.465 17.465 17.465zm38.402 39.309v-0.002l-26.742-2.168-9.246-21.112s-0.461-2.774-6.008-8.476c-5.549-5.702-16.799-3.39-16.799-3.39s-23.886 4.469-31.745 6.317c-7.86 1.85-8.168 9.863-8.168 9.863l-3.082 22.036-0.64 4.406c-0.005 0.026-0.008 0.056-0.012 0.082l-0.018 0.127h0.002a7.43 7.43 0 0 0 7.367 8.38 7.428 7.428 0 0 0 7.368 -8.366l4.734-21.581 11.557-1.386-1.789 5.88 9.898 1.919a3.01 3.01 0 0 1 2.375 3.517l-7.412 38.243a3.012 3.012 0 0 1 -2.948 2.43c-0.072 0-0.146-0.016-0.22-0.021-0.728 0.104-1.291-0.035-1.291-0.035l-9.4-1.849-3.082 17.105-23.56 20.363a7.43 7.43 0 1 0 9.857 11.086s27.725-22.05 29.575-23.591c1.85-1.54 2.773-3.853 2.773-3.853s4.541-13.948 5.779-16.874c0.848-2.004 4.932-1.079 4.932-1.079l22.885 8.631 7.615 29.062c0.082 0.63 0.242 1.234 0.473 1.804h0.002a7.428 7.428 0 0 0 14.112 -4.512c-0.842-4.965-4.604-27.046-5.561-31.826-1.078-5.394-4.621-6.934-4.621-6.934s-21.267-11.558-22.653-12.33c-1.387-0.77-1.078-2.774-1.078-2.774l3.93-14.331 2.773 5.856s1.619 3.274 4.084 3.391l33.357 0.82a7.43 7.43 0 0 0 0.627 -14.831z" fill="#3A3A3A"/><path d="m53.971 108.74h0.002c0.073 0.006 0.147 0.021 0.22 0.021 1.407 0 2.671-1 2.948-2.43l7.412-38.243a3.01 3.01 0 0 0 -2.375 -3.517l-20.214-3.917-1.286 5.862 17.413 3.374-6.271 32.354-45.304-8.779 6.27-32.353 12.542 2.431 0.832-5.95-15.178-2.942a3.012 3.012 0 0 0 -3.516 2.374l-7.411 38.244a3.008 3.008 0 0 0 2.375 3.516l51.196 9.923c0.114 0.022 0.229 0.023 0.345 0.032z" fill="#F0C42E"/><path d="m59.042 8.982a2 2 0 0 1 -2 1.99h-38.027c-1.1 0-2-0.896-2-1.99s0.9-1.99 2-1.99h38.027c1.1 0.001 2 0.896 2 1.99zm-2.038 9.998c0 1.094-0.9 1.99-2 1.99h-22.96c-1.1 0-2-0.896-2-1.99a2 2 0 0 1 2 -1.99h22.959c1.101 0 2.001 0.896 2.001 1.99z" fill="#F0C52E"/></svg><svg width="42" viewBox="-5 -5 42 42" height="42" id="fb" y="480"><path d="m16 0c-8.836 0-16 7.163-16 16s7.164 16 16 16c8.837 0 16-7.164 16-16s-7.163-16-16-16zm4.062 9.455h-3.021v3.444h3.021v3.445h-3.021v8.61h-3.021v-8.61h-3.02v-3.445h3.021v-3.444c0-1.902 1.353-3.445 3.021-3.445h3.021v3.445z" fill="#FFF"/></svg><svg width="30" viewBox="-5 -5 30 33" height="33" id="filter-button" y="522"><path opacity=".3" d="m10 20c-5.523 0-10-4.478-10-10v2c0 5.522 4.477 10 10 10 5.522 0 10-4.478 10-10v-2c0 5.522-4.478 10-10 10z" fill="#ABABAB"/><circle cy="10" cx="10" r="10" fill="#FFF"/><circle cy="10" cx="10" r="2" fill="#ABABAB"/></svg><svg width="21" viewBox="-5 -5 21 20" height="20" id="icon-down-dir" y="555"><path d="m5.5 10l-5.5-10h11" fill="#231F20"/></svg><svg width="21" viewBox="-5 -5 21 20" height="20" id="icon-up-dir" y="575"><path d="m5.5 0l-5.5 10h11z" fill="#231F20"/></svg><svg width="42" viewBox="-5 -5 42 42" height="42" id="instagram" y="595"><g fill="#FFF"><path d="m20.916 16a4.938 4.938 0 1 1 -9.877 0c0-0.394 0.051-0.773 0.138-1.14h-0.897v6.838h11.396v-6.838h-0.897c0.086 0.367 0.137 0.746 0.137 1.14z"/><path d="m15.978 18.659c1.466 0 2.659-1.193 2.659-2.659s-1.193-2.659-2.659-2.659c-1.466 0-2.659 1.193-2.659 2.659s1.192 2.659 2.659 2.659zm2.659-8.357h3.039v3.039h-3.039z"/><path d="m16 0c-8.836 0-16 7.164-16 16 0 8.837 7.164 16 16 16 8.837 0 16-7.163 16-16 0-8.836-7.163-16-16-16zm7.955 21.698a2.285 2.285 0 0 1 -2.279 2.279h-11.397a2.285 2.285 0 0 1 -2.279 -2.279v-11.396a2.286 2.286 0 0 1 2.279 -2.279h11.396a2.286 2.286 0 0 1 2.279 2.279v11.396z"/></g></svg><svg width="37" viewBox="-5 -5 36.943 44.09" height="44" id="logo-html" y="637"><path d="m13.62 0.017l-0.148-0.017-13.472 1.412v24.661l13.473 8.017 13.43-7.99 0.042-0.025v-24.663l-13.325-1.395zm11.399 12.11l-11.524-6.793-0.001-0.104-0.087 0.05-0.088-0.056v0.109l-11.394 6.785v-8.971l11.548-1.212 11.547 1.212v8.98zm-11.614-5.34l11.518 6.713-4.479 2.64-7.093-4.221-0.014 1.415 5.904 3.513-0.86 0.507-5.03-2.992-0.014 1.415 3.827 2.275-0.782 0.523-3.031-1.787-0.014 1.413 1.853 1.091-1.8 1.081-11.356-6.751 11.371-6.835zm-11.48 8.34l11.411 6.791 0.016 1.044-7.942-4.728-0.015 1.416 7.979 4.795 0.018 1.076-7.973-4.74-0.013 1.414 8.021 4.822 0.046 0.025 8.143-4.872-0.011-5.177 3.415-2.036v10.021l-11.548 6.872-11.547-6.871v-9.852z" fill="#FFC600"/></svg><svg width="33" viewBox="-5 -5 33 32" height="32" id="menu-close" y="681"><path d="m22.979 20.569l-9.99-9.574 9.989-9.573-1.487-1.425-9.988 9.573-9.987-9.573-1.487 1.425 9.987 9.573-9.988 9.574 1.488 1.425 9.987-9.574 9.989 9.574z"/></svg><svg width="65" viewBox="-5 -5 65 65" height="65" id="modal-close" y="713"><path d="m27.5 0c-15.188 0-27.5 12.312-27.5 27.5s12.312 27.5 27.5 27.5 27.5-12.312 27.5-27.5-12.312-27.5-27.5-27.5zm11.476 37.072l-1.486 1.426-9.99-9.574-9.987 9.574-1.488-1.426 9.988-9.573-9.987-9.573 1.487-1.425 9.987 9.573 9.988-9.573 1.487 1.425-9.989 9.574 9.99 9.572z" fill="#F0C52E"/></svg><svg width="14" viewBox="-5 -5 14 17" height="17" id="nav-arrow" y="778"><path d="m3.83 3.132l-2.969-2.988a0.5 0.5 0 0 0 -0.713 0 0.508 0.508 0 0 0 0 0.718l2.611 2.629-2.611 2.629a0.51 0.51 0 0 0 0 0.72 0.5 0.5 0 0 0 0.713 0l2.969-2.988a0.51 0.51 0 0 0 0.147 -0.36 0.507 0.507 0 0 0 -0.147 -0.36z"/></svg><svg width="26" viewBox="-5 -5 26 26" height="26" id="plus" y="795"><path d="m16 7h-7v-7h-2v7h-7v2h7v7h2v-7h7z" fill="#272525"/></svg><svg width="142" viewBox="-5 -5 142 79" height="79" id="poppular-6" y="821"><g fill="#363636"><path d="m12.052 0.258c-5.545 0.487-10.214 1.592-11.477 2.672-0.722 0.616-0.722 0.616-0.232 1.156 0.644 0.72 3.713 1.645 7.247 2.237 3.998 0.668 12.51 0.693 13.724 0.051 1.211-0.668 1.624-1.414 1.624-2.981 0-1.619-0.62-2.416-2.218-2.853-1.446-0.386-5.78-0.54-8.668-0.282zm13.722 0.23c-0.129 0.283-0.258 2.108-0.258 4.112 0 4.061 0.155 3.778-2.192 3.933l-1.03 0.077-0.13 2.545-0.129 2.544-1.186 0.283c-2.58 0.668-4 2.595-3.792 5.294 0.128 1.927 1.03 3.341 2.579 4.087 1.109 0.513 1.47 0.538 11.246 0.538 5.545 0 10.137 0.079 10.188 0.18 0.051 0.13-1.11 9.408-2.58 20.64-1.444 11.23-2.682 20.997-2.708 21.666-0.051 1.617 0.826 2.62 2.348 2.62 1.237 0 2.012-0.64 2.321-1.9 0.13-0.514 1.496-10.334 3.018-21.822 1.522-11.463 2.863-20.869 2.94-20.869 0.104 0 1.084 1.413 2.193 3.136 2.94 4.626 2.399 4.317 7.635 4.317h4.359v5.63l-5.133 0.077c-4.72 0.077-5.21 0.127-5.881 0.615-1.573 1.157-1.625 1.415-1.625 10.977 0 9.534 0.026 9.792 1.522 11.05l0.851 0.695h31.365l0.851-0.696c1.496-1.257 1.52-1.515 1.52-11.05 0-9.56-0.05-9.819-1.622-10.976-0.671-0.488-1.161-0.538-5.882-0.615l-5.132-0.077v-5.63h4.36c5.234 0 4.693 0.309 7.633-4.317 1.11-1.723 2.09-3.136 2.194-3.136 0.076 0 1.418 9.406 2.94 20.869 1.522 11.488 2.889 21.308 3.018 21.821 0.31 1.26 1.082 1.902 2.321 1.902 1.521 0 2.4-1.004 2.347-2.621-0.026-0.67-1.264-10.436-2.71-21.666-1.468-11.232-2.63-20.51-2.577-20.64 0.05-0.101 4.641-0.18 10.19-0.18 9.774 0 10.135-0.025 11.243-0.538 1.548-0.746 2.45-2.16 2.58-4.087 0.206-2.699-1.212-4.626-3.792-5.294l-1.187-0.283-0.127-2.544-0.13-2.545-1.031-0.077c-2.347-0.155-2.194 0.128-2.194-3.933 0-2.004-0.128-3.829-0.257-4.112-0.206-0.36-0.543-0.488-1.367-0.488-0.619 0-1.238 0.128-1.42 0.309-0.206 0.205-0.31 1.465-0.31 3.932s-0.102 3.727-0.309 3.932c-0.18 0.18-0.901 0.308-1.65 0.308-1.625 0-1.65 0.052-1.65 3.11v2.287h-67.063v-2.287c0-3.058-0.024-3.11-1.65-3.11-0.748 0-1.47-0.129-1.65-0.308-0.207-0.205-0.31-1.465-0.31-3.932s-0.103-3.727-0.31-3.932c-0.18-0.18-0.8-0.309-1.418-0.309-0.825 0-1.16 0.128-1.368 0.488zm42.843 40.12c2.889 0.899 5.392 3.393 6.166 6.168 0.439 1.543 0.31 4.216-0.284 5.784-0.696 1.875-2.685 4.01-4.565 4.935-1.29 0.642-1.754 0.719-3.921 0.719s-2.631-0.077-3.92-0.719c-1.885-0.926-3.87-3.06-4.567-4.935-0.592-1.568-0.722-4.24-0.283-5.784 0.748-2.723 3.25-5.27 6.061-6.168 2.012-0.642 3.3-0.642 5.313 0z"/><path d="m63.794 44.438c-2.037 0.925-3.507 3.649-3.069 5.73 0.774 3.677 4.823 5.553 7.996 3.702 1.985-1.158 2.99-3.547 2.45-5.783-0.568-2.39-2.734-4.138-5.158-4.138-0.646 0-1.626 0.232-2.22 0.489zm-27.702-44.284c-3.92 0.668-4.513 1.131-4.513 3.444 0 1.825 0.463 2.416 2.268 2.956 1.55 0.462 7.172 0.514 10.5 0.128 6.86-0.822 11.321-2.544 9.698-3.752-1.265-0.9-4.902-1.876-9.054-2.39-2.475-0.308-7.996-0.54-8.9-0.386zm53.392 0.104c-6.319 0.59-11.864 2.081-11.864 3.186 0 1.722 7.84 3.47 15.63 3.495 5.804 0 7.196-0.642 7.196-3.34 0-1.825-0.619-2.622-2.373-3.085-1.65-0.411-5.675-0.514-8.589-0.256zm23.296 0.025c-1.78 0.231-3.018 0.77-3.43 1.491-0.387 0.77-0.31 2.904 0.154 3.572 0.928 1.31 1.652 1.465 7.068 1.465 3.661 0 5.802-0.129 7.867-0.488 3.534-0.592 6.603-1.517 7.248-2.237 0.49-0.54 0.49-0.54-0.233-1.156-1.34-1.13-5.958-2.185-11.916-2.672-3.481-0.283-4.488-0.283-6.758 0.025z"/></g></svg><svg width="107" viewBox="-5 -5 107 65" height="65" id="popular-1" y="900"><g fill="#363636"><path d="m84.131 32.639v-12.636c0-1.309 1.045-2.37 2.335-2.37l8.326 1.581v-8.194c0-2.355-1.708-3.431-4.202-4.265l-23.187-6.58c1.616 1.391 1.889 2.04 1.889 4.396v45.209c0 2.356-0.45 4.066-1.967 5.21l23.265-7.065c2.401-0.833 4.202-4.216 4.202-6.572v-7.913l-8.326 1.567c-1.29 0.002-2.335-1.06-2.335-2.368z"/><path d="m95.129 20.979l-7.598-1.444c-1.008 0-1.824 0.829-1.824 1.851v9.868c0 1.023 0.816 1.852 1.824 1.852l7.598-1.431c1.154-0.419 1.824-0.829 1.824-1.852v-6.993c0-1.022-0.766-1.507-1.824-1.851zm-27.959-16.496c0-5.08-4.232-4.459-4.232-4.459s-57.106 4.714-60.1 5.121-2.837 4.387-2.837 4.387l-0.001 36.28c0 3.743 2.599 3.753 2.599 3.753l16.477 1.403 8.136-11.668s1.109-1.828 2.505-1.828c1.397 0 2.432 1.861 2.432 1.861l9.061 13.521s18.895 1.909 22.521 1.909c3.626-0.001 3.439-5.024 3.439-5.024v-45.256zm-54.188 32.709c-3.698 0-6.696-4.601-6.696-10.275s2.998-10.275 6.696-10.275c3.698 0 6.696 4.601 6.696 10.275s-2.998 10.275-6.696 10.275zm36.158 1.426c-4.662 0-8.441-5.239-8.441-11.701 0-6.463 3.78-11.702 8.441-11.702 4.662 0 8.442 5.239 8.442 11.702 0 6.462-3.78 11.701-8.442 11.701z"/></g></svg><svg width="96" viewBox="-5 -5 96 127" height="127" id="popular-2" y="965"><g fill="#363636"><path d="m82.821 4.011h-79.491a3.188 3.188 0 0 0 -3.188 3.188v46.413a3.187 3.187 0 0 0 3.188 3.189h79.492a3.188 3.188 0 0 0 3.189 -3.189v-46.413a3.189 3.189 0 0 0 -3.19 -3.188zm-74.429 33.225h-0.226a3.19 3.19 0 0 1 -3.189 -3.189v-7.283a3.188 3.188 0 0 1 3.189 -3.188h0.226v13.66zm61.231 15.172h-56.282v-44.006h56.282v44.006zm8.777-17.856c-2.289 0-4.146-1.855-4.146-4.147s1.856-4.147 4.146-4.147a4.146 4.146 0 1 1 0 8.294zm-46.903-34.552h23.157v2.758h-23.157zm15.111 64.861v-2.973h8.046v-2.758h-23.156v2.758h8.045v35.246a6.068 6.068 0 0 0 -3.635 5.559v14.31h14.335v-14.307a6.062 6.062 0 0 0 -3.636 -5.557v-27.99h4.796l5.051 1.213v-6.711l-5.051 1.213h-4.795z"/></g></svg><svg width="81" viewBox="-5 -5 81 97" height="97" id="popular-3" y="1092"><g fill="#363636"><path d="m53.349 1.49c0-0.736-0.578-1.49-1.311-1.49h-42.985c-0.733 0-1.381 0.754-1.381 1.49v3.522h45.676v-3.522zm0.853 80.319h-9.597v-10.383h-6.958v2.507h-18.873c-0.537-1.254-1.757-2.148-3.181-2.148h-12.034c-1.917-0.001-3.559 1.602-3.559 3.526v3.018c0 1.924 1.642 3.48 3.559 3.48h12.035c1.511 0 2.792-0.896 3.269-2.326h18.785v2.326h-9.518c-0.533 0-1.01 0.437-1.01 0.972v3.172c0 0.535 0.478 1.048 1.01 1.048h26.072c0.533 0 0.93-0.513 0.93-1.048v-3.173c0-0.535-0.397-0.971-0.93-0.971zm6.464-69.419a7.037 7.037 0 0 0 -6.771 -5.05h-46.747c-3.898 0-7.148 3.109-7.148 7.021v46.9c0 3.912 3.25 7.121 7.148 7.121h46.747c3.898 0 7.126-3.209 7.126-7.121v-10.346a23.228 23.228 0 0 0 10.001 -19.164c-0.001-8.079-4.132-15.181-10.356-19.361zm-48.428 49.761c-3.259 0-5.901-2.65-5.901-5.921 0-3.27 2.642-5.922 5.901-5.922s5.902 2.652 5.902 5.922c0 3.271-2.643 5.921-5.902 5.921zm5.961-32.605a1.42 1.42 0 0 1 -1.418 1.422h-8.94a1.42 1.42 0 0 1 -1.418 -1.422v-14.16a1.42 1.42 0 0 1 1.418 -1.423h8.939a1.42 1.42 0 0 1 1.418 1.423v14.16zm29.563 22.312c-11.076 0-20.057-9.01-20.057-20.123s8.98-20.124 20.057-20.124c11.077 0 20.058 9.01 20.058 20.124s-8.981 20.123-20.058 20.123z"/><ellipse cy="31.735" cx="47.762" rx="12.188" ry="12.229"/><circle cy="31.736" cx="31.562" r="1.435"/><circle cy="31.736" cx="63.963" r="1.435"/><circle cy="17.994" cx="39.109" r="1.435"/><ellipse cy="45.476" cx="56.415" rx="1.43" ry="1.436"/><circle cy="17.565" cx="55.697" r="1.435"/><circle cy="45.906" cx="39.828" r="1.435"/></g></svg><svg width="117" viewBox="-5 -5 117 75" height="75" id="popular-4" y="1189"><g fill="#363636"><path d="m98.967 4.074c0.752 1.441 1.209 3.08 1.209 4.818v21.102c0 4.616-3.092 8.527-7.246 9.9-1.325 3.987-3.778 7.854-8.051 10.432-8.676 5.231-31.124 4.837-31.198 4.837-0.078 0-22.513 0.395-31.189-4.837-4.216-2.545-6.708-6.347-8.042-10.279-4.418-1.209-7.756-5.251-7.756-10.053v-21.101c0-1.688 0.427-3.282 1.139-4.693-3.667 0.909-7.837 2.718-7.837 6.234v29.983c0 10.251 11.839 24.433 53.657 24.433 41.82 0 53.657-14.182 53.657-24.433v-29.983c-0.001-3.684-4.576-5.494-8.347-6.36z"/><path d="m20.561 38.459h65.523c5.564 0 10.074-4.513 10.074-10.077v-18.447c0-5.563-4.51-10.075-10.074-10.075h-65.523c-5.564 0-10.075 4.511-10.075 10.075v18.447c0 5.564 4.511 10.077 10.075 10.077zm63.134-28.991a1.57 1.57 0 1 1 0 3.139 1.57 1.57 0 0 1 0 -3.139zm0 4.039a1.569 1.569 0 1 1 0 3.138 1.569 1.569 0 0 1 0 -3.138zm0 4.039a1.568 1.568 0 1 1 0.001 3.137 1.568 1.568 0 0 1 -0.001 -3.137zm0 3.827a1.57 1.57 0 1 1 -0.001 3.14 1.57 1.57 0 0 1 0.001 -3.14zm0 4.039a1.568 1.568 0 1 1 0.001 3.137 1.568 1.568 0 0 1 -0.001 -3.137zm-4.039-15.944c0.867 0 1.568 0.703 1.568 1.57a1.568 1.568 0 1 1 -3.136 0c0-0.868 0.703-1.57 1.568-1.57zm0 15.944a1.568 1.568 0 1 1 0 3.135 1.568 1.568 0 0 1 0 -3.135zm-4.037-15.944a1.57 1.57 0 1 1 -0.003 3.14 1.57 1.57 0 0 1 0.003 -3.14zm0 4.039a1.57 1.57 0 1 1 -0.003 3.139 1.57 1.57 0 0 1 0.003 -3.139zm0 4.039a1.569 1.569 0 1 1 -0.002 3.138 1.569 1.569 0 0 1 0.002 -3.138zm0 3.827a1.568 1.568 0 1 1 0 3.138 1.568 1.568 0 0 1 0 -3.138zm0 4.039a1.569 1.569 0 1 1 -0.002 3.138 1.569 1.569 0 0 1 0.002 -3.138zm-7.654-15.944c0.867 0 1.568 0.703 1.568 1.57a1.568 1.568 0 1 1 -3.136 0 1.568 1.568 0 0 1 1.568 -1.57zm0 8.078a1.568 1.568 0 1 1 -1.568 1.569 1.568 1.568 0 0 1 1.568 -1.569zm0 3.881a1.569 1.569 0 1 1 -0.002 3.136 1.569 1.569 0 0 1 0.002 -3.136zm0 3.985a1.568 1.568 0 1 1 0 3.135 1.568 1.568 0 0 1 0 -3.135zm-4.039-15.944a1.57 1.57 0 1 1 0 3.14 1.57 1.57 0 0 1 0 -3.14zm0 8.078a1.57 1.57 0 1 1 0.001 3.139 1.57 1.57 0 0 1 -0.001 -3.139zm0 7.866a1.57 1.57 0 1 1 0.001 3.139 1.57 1.57 0 0 1 -0.001 -3.139zm-4.038-15.944a1.57 1.57 0 0 1 0 3.139 1.568 1.568 0 0 1 -1.568 -1.569 1.567 1.567 0 0 1 1.568 -1.57zm0 4.039a1.57 1.57 0 1 1 -0.001 3.135 1.57 1.57 0 0 1 0.001 -3.135zm0 4.039a1.57 1.57 0 1 1 -0.001 3.14 1.57 1.57 0 0 1 0.001 -3.14zm0 7.866a1.57 1.57 0 0 1 0 3.137 1.569 1.569 0 0 1 0 -3.137zm-8.29-15.944a1.57 1.57 0 1 1 0 3.139 1.57 1.57 0 0 1 0 -3.139zm0 4.039a1.569 1.569 0 1 1 0 3.138 1.569 1.569 0 0 1 0 -3.138zm0 4.039a1.568 1.568 0 1 1 0.001 3.137 1.568 1.568 0 0 1 -0.001 -3.137zm0 3.881a1.568 1.568 0 1 1 0 3.137 1.569 1.569 0 0 1 0 -3.137zm0 3.985a1.568 1.568 0 1 1 0.001 3.137 1.568 1.568 0 0 1 -0.001 -3.137zm-4.039-11.905a1.568 1.568 0 1 1 0 3.136 1.568 1.568 0 0 1 0 -3.136zm-8.502-0.212a1.57 1.57 0 1 1 -0.001 3.135 1.57 1.57 0 0 1 0.001 -3.135zm0 4.038a1.57 1.57 0 1 1 -0.003 3.141 1.57 1.57 0 0 1 0.003 -3.141zm-4.039-8.078a1.57 1.57 0 1 1 -0.003 3.14 1.57 1.57 0 0 1 0.003 -3.14zm0 4.04a1.57 1.57 0 1 1 -0.003 3.139 1.57 1.57 0 0 1 0.003 -3.139zm0 4.038a1.57 1.57 0 1 1 -0.003 3.14 1.57 1.57 0 0 1 0.003 -3.14zm0 4.04a1.569 1.569 0 1 1 -0.001 3.137 1.569 1.569 0 0 1 0.001 -3.137zm-4.254-8.078a1.569 1.569 0 1 1 0 3.138 1.569 1.569 0 0 1 0 -3.138zm0 4.038a1.57 1.57 0 1 1 0 3.139 1.57 1.57 0 0 1 0 -3.139zm0 4.04a1.57 1.57 0 1 1 -0.001 3.14 1.57 1.57 0 0 1 0.001 -3.14zm0 4.039a1.568 1.568 0 1 1 0.001 3.137 1.568 1.568 0 0 1 -0.001 -3.137zm-4.464-16.157zm0 4.04a1.57 1.57 0 0 1 1.571 1.568 1.57 1.57 0 0 1 -3.14 0 1.57 1.57 0 0 1 1.569 -1.568zm0 4.038a1.571 1.571 0 1 1 0 3.14 1.571 1.571 0 0 1 0 -3.14zm0 4.04zm-4.037-8.078a1.57 1.57 0 1 1 -0.001 3.135 1.57 1.57 0 0 1 0.001 -3.135zm0 4.038a1.57 1.57 0 0 1 0 3.14 1.57 1.57 0 0 1 0 -3.14z"/></g></svg><svg width="66" viewBox="-5 -5 66 108" height="108" id="popular-5" y="1264"><g fill="#363636"><path d="m54.494 32.197h-1.515v-4.64c0-5.052-4.087-9.186-9.082-9.186h-34.815c-4.996 0.001-9.082 4.134-9.082 9.186v42.868c0 5.052 4.087 9.185 9.083 9.185h34.815c4.995 0 9.082-4.133 9.082-9.185v-3.415h1.515a0.764 0.764 0 0 0 0.757 -0.764v-13.779a0.765 0.765 0 0 0 -0.757 -0.766h-1.515v-8.788h1.515c0.832 0 1.514-0.688 1.514-1.531v-7.654a1.529 1.529 0 0 0 -1.515 -1.531zm-20.412-3.109c2.926 0 5.299 2.398 5.299 5.358s-2.373 5.358-5.299 5.358-5.298-2.398-5.298-5.358 2.372-5.358 5.298-5.358zm-15.137 0c2.925 0 5.298 2.398 5.298 5.358s-2.373 5.358-5.298 5.358c-2.926 0-5.298-2.398-5.298-5.358s2.372-5.358 5.298-5.358zm-13.648 20.309c0-2.959 2.371-5.358 5.298-5.358 2.926 0 5.298 2.399 5.298 5.358s-2.373 5.358-5.298 5.358c-2.927 0.001-5.298-2.399-5.298-5.358zm13.648 19.497c-2.926 0-5.298-2.398-5.298-5.358s2.372-5.358 5.298-5.358c2.925 0 5.298 2.398 5.298 5.358s-2.373 5.358-5.298 5.358zm1.49-19.903c0-3.382 2.711-6.124 6.055-6.124s6.055 2.742 6.055 6.124-2.711 6.124-6.055 6.124c-3.344-0.001-6.055-2.742-6.055-6.124zm13.647 19.903c-2.926 0-5.298-2.398-5.298-5.358s2.372-5.358 5.298-5.358 5.299 2.398 5.299 5.358-2.373 5.358-5.299 5.358zm8.302-14.138c-2.927 0-5.298-2.399-5.298-5.358s2.371-5.358 5.298-5.358c2.926 0 5.298 2.399 5.298 5.358 0 2.958-2.372 5.358-5.298 5.358zm-32.738-39.446h33.687c0.843 0 1.432-0.681 1.306-1.514l-1.616-10.768-0.002-0.002c-0.25-1.664-1.832-3.026-3.515-3.026h-26.032c-1.686 0-3.268 1.362-3.517 3.028l-1.615 10.767c-0.125 0.833 0.461 1.515 1.304 1.515zm33.687 67.361h-33.687c-0.843 0-1.429 0.683-1.304 1.516l1.615 10.767c0.25 1.666 1.832 3.028 3.516 3.028h26.032c1.684 0 3.266-1.362 3.517-3.026v-0.002l1.615-10.767c0.128-0.833-0.461-1.516-1.304-1.516z"/></g></svg><svg width="35" viewBox="-5 -5 35 35" height="35" id="radio-off" y="1372"><path d="m12.5 4c4.687 0 8.5 3.813 8.5 8.5s-3.813 8.5-8.5 8.5-8.5-3.813-8.5-8.5 3.813-8.5 8.5-8.5m0-4c-6.903 0-12.5 5.597-12.5 12.5s5.597 12.5 12.5 12.5 12.5-5.597 12.5-12.5-5.597-12.5-12.5-12.5z"/></svg><svg width="35" viewBox="-5 -5 35 35" height="35" id="radio-on" y="1407"><path d="m12.5 4c4.687 0 8.5 3.813 8.5 8.5s-3.813 8.5-8.5 8.5-8.5-3.813-8.5-8.5 3.813-8.5 8.5-8.5m0-4c-6.903 0-12.5 5.597-12.5 12.5s5.597 12.5 12.5 12.5 12.5-5.597 12.5-12.5-5.597-12.5-12.5-12.5z"/><circle cy="12.5" cx="12.5" r="4.5"/></svg><svg width="26" viewBox="-5 -5 26 26" height="26" id="search" y="1442"><path d="m15.7 14.3l-3.104-3.104a6.979 6.979 0 0 0 1.404 -4.196 7 7 0 1 0 -7 7 6.963 6.963 0 0 0 4.193 -1.404l3.107 3.104c0.185 0.184 0.38 0.3 0.7 0.3a1 1 0 0 0 1 -1 0.93 0.93 0 0 0 -0.3 -0.7zm-13.7-7.3c0-2.762 2.238-5 5-5s5 2.238 5 5-2.238 5-5 5-5-2.238-5-5z"/></svg><svg width="33" viewBox="-5 -5 33 33" height="33" id="slider-button-empty" y="1468"><path d="m11.5 2c5.238 0 9.5 4.262 9.5 9.5s-4.262 9.5-9.5 9.5-9.5-4.262-9.5-9.5 4.262-9.5 9.5-9.5m0-2c-6.351 0-11.5 5.149-11.5 11.5 0 6.352 5.149 11.5 11.5 11.5 6.352 0 11.5-5.148 11.5-11.5 0-6.351-5.148-11.5-11.5-11.5z"/></svg><svg width="33" viewBox="-5 -5 33 33" height="33" id="slider-button" y="1501"><path d="m11.5 2c5.238 0 9.5 4.262 9.5 9.5s-4.262 9.5-9.5 9.5-9.5-4.262-9.5-9.5 4.262-9.5 9.5-9.5m0-2c-6.351 0-11.5 5.149-11.5 11.5 0 6.352 5.149 11.5 11.5 11.5 6.352 0 11.5-5.148 11.5-11.5 0-6.351-5.148-11.5-11.5-11.5z"/><path d="m11.5 9.004a2.5 2.5 0 0 1 2.496 2.496 2.5 2.5 0 0 1 -2.496 2.496 2.5 2.5 0 0 1 -2.496 -2.496 2.5 2.5 0 0 1 2.496 -2.496m0-2a4.496 4.496 0 1 0 0 8.992 4.496 4.496 0 0 0 0 -8.992z"/></svg><svg width="22" viewBox="-5 -5 22 17" height="17" id="tick" y="1534"><path d="m11.798 0.267a0.752 0.752 0 0 0 -1.061 -0.122l-6.348 5.083-3.142-2.876a0.752 0.752 0 0 0 -1.066 0.051 0.764 0.764 0 0 0 0.05 1.074l3.618 3.309c0.038 0.035 0.083 0.053 0.125 0.078 0.03 0.019 0.055 0.04 0.086 0.054a0.753 0.753 0 0 0 0.296 0.066 0.713 0.713 0 0 0 0.274 -0.058c0.029-0.01 0.053-0.028 0.08-0.042 0.04-0.022 0.081-0.036 0.117-0.064l6.85-5.485a0.764 0.764 0 0 0 0.121 -1.068z"/></svg><svg width="42" viewBox="-5 -5 42 42" height="42" id="twitter" y="1551"><path d="m16 0c-8.836 0-16 7.164-16 16 0 8.837 7.164 16 16 16 8.837 0 16-7.163 16-16 0-8.836-7.163-16-16-16zm7.944 12.809c-0.251 6.516-3.463 10.832-10.992 10.702h-0.486c-0.447 0-4.543-0.443-5.344-1.823 2.479 0.19 4.247-0.406 5.12-1.136-1.048-0.289-2.923-0.461-3.251-2.848 0.384 0.104 0.618 0.221 1.299 0.113-1.307-0.824-2.758-1.519-2.679-3.643 0.311 0.317 1.164 0.518 1.46 0.457-0.768-0.233-2.149-3.244-0.974-4.781 1.984 1.79 4.075 3.482 7.804 3.643 0.227-2.214 1.24-3.699 3.168-4.325 1.84-0.479 3.255 0.26 3.901 1.138 0.737-0.224 1.453-0.466 2.193-0.685-0.004 0.833-0.569 1.463-0.935 1.709 0.747 0.165 1.423-0.475 1.423-0.475-0.184 0.963-1.094 1.725-1.707 1.954z" fill="#FFF"/></svg><svg width="23" viewBox="-5 -5 23 22" height="22" id="user" y="1593"><path d="m0.032 12h12.937c-0.163-2.643-2.074-4.837-4.671-5.543a3.47 3.47 0 0 0 1.687 -2.972 3.485 3.485 0 0 0 -6.97 0c0 1.264 0.68 2.361 1.688 2.972-2.597 0.706-4.509 2.9-4.671 5.543z" fill="#272525"/></svg><svg width="181" viewBox="-5 -5 181 205" height="205" id="warranty" y="1615"><g fill="#FFF"><path d="m77.694 174.64c-0.104-0.13-10.495-12.996-12.609-15.76-1.321-1.727-3.307-2.678-5.593-2.678-2.56 0-4.836 1.17-5.512 1.553l-5.486 2.743c-1.773-0.479-5.587-1.95-9.28-6.268-3.284-3.839-3.261-8.986-3.086-11.099l5.893-5.893c3.093-2.717 2.452-6.516 1.246-8.431l-0.219-0.311s-12.862-16.221-14.666-18.498c-0.989-1.249-2.475-1.938-4.184-1.938-2.849 0-5.879 1.975-6.756 2.592-10.885 7.749-11.586 14.562-11.631 15.313l-0.024 0.414 0.074 0.409c6.412 35.726 26.026 51.137 35.453 58.543 1.148 0.901 2.14 1.681 2.854 2.306 6.563 5.74 13.762 6.36 16.553 6.36 2.375-0.001 4.48-0.405 6.089-1.171 4.366-2.078 9.425-8.01 10.872-9.778 2.501-3.059 1.283-6.599 0.168-8.208l-0.156-0.207zm-13.893 11.873c-0.499 0.237-1.57 0.491-3.081 0.491-1.56 0-7.032-0.334-11.944-4.632-0.854-0.747-1.913-1.579-3.139-2.543-8.694-6.83-26.729-21.001-32.78-53.684 0.289-0.979 1.829-4.938 8.62-9.771a11.385 11.385 0 0 1 2.119 -1.142l13.502 17.03-7.528 7.527-0.203 1.055c-0.081 0.422-1.911 10.409 4.527 17.937 6.286 7.349 13.25 8.667 14.583 8.856l1.082 0.154 7.644-3.823 0.218-0.118c0.281-0.167 1.335-0.648 2.071-0.648 0.036 0 0.065 0.001 0.088 0.003 2.149 2.8 11.105 13.897 12.5 15.624a0.03 0.03 0 0 0 0.004 0.01c-2.562 3.095-6.173 6.669-8.283 7.674zm74.049-120.69c5.512-5.177 7.156-11.975 5.033-20.783a2.502 2.502 0 0 0 -4.103 -1.272l-8.221 7.403c-1.438-0.795-3.676-2.451-4.465-5.33l6.803-6.729a2.502 2.502 0 0 0 0.104 -3.446l-0.186-0.207a2.473 2.473 0 0 0 -0.678 -0.533c-0.16-0.086-3.988-2.116-8.824-2.116-4.709 0-8.859 1.921-12.002 5.556-6 6.938-4.557 15.042-3.543 18.471l-3.488 3.488-10.284-9.236 4.717-3.266-20.034-13.724-10.601 10.603 13.724 20.041 3.266-4.717 9.237 10.282-3.295 3.294c-1.5-0.478-3.883-1.052-6.663-1.052-5.429 0-10.236 2.174-13.962 6.359-0.271 0.329-6.599 8.165-2.751 18.621a2.501 2.501 0 0 0 3.993 1.019l8.295-7.259c1.323 0.567 3.622 2.08 4.659 5.925l-7.384 7.516a2.498 2.498 0 0 0 1.218 4.187c0.11 0.025 2.724 0.623 6.175 0.623 6.84 0 12.112-2.271 15.245-6.567 3.363-4.613 4.094-9.433 3.994-13.088l16.217 16.217 0.172 0.158c1.521 1.26 4.318 2.725 7.451 2.725 2.227 0 4.625-0.741 6.852-2.824l5.518-5.516 0.102-0.104c5.012-5.358 2.258-11.698 0.1-14.302l-16.945-16.959c1.027 0.106 2.148 0.181 3.322 0.181 4.888-0.001 8.669-1.225 11.24-3.639zm-53.299-13.846l-2.734 3.949-7.276-10.625 4.731-4.732 10.625 7.276-3.95 2.734 14.792 13.286-4.094 4.093 1.191-1.192-13.285-14.789zm13.562 33.524c0.109 0.313 2.615 7.746-2.328 14.527-2.77 3.798-7.748 4.526-11.4 4.512l4.703-4.787c0.566-0.576 0.82-1.391 0.68-2.187-1.791-10.147-9.745-11.484-10.083-11.536a2.513 2.513 0 0 0 -2.027 0.589l-6.204 5.428c-0.522-5.56 2.413-9.489 2.759-9.932 2.721-3.03 6.127-4.566 10.125-4.566 3.515 0 6.231 1.211 6.249 1.22a2.501 2.501 0 0 0 2.818 -0.501l19-19a2.493 2.493 0 0 0 0.527 -2.756c-0.035-0.083-3.494-8.34 2.158-14.876 2.195-2.539 4.961-3.826 8.221-3.826 1.23 0 2.383 0.183 3.365 0.421l-5.047 4.993a2.5 2.5 0 0 0 -0.725 2.08c1.012 8.3 8.969 11.077 9.307 11.191a2.503 2.503 0 0 0 2.473 -0.511l6.049-5.447c0.373 4.864-1.02 8.554-4.309 11.642-2.008 1.887-5.359 2.283-7.818 2.283-3.689 0-6.951-0.865-6.982-0.873a2.502 2.502 0 0 0 -2.43 0.653l-18.5 18.667a2.521 2.521 0 0 0 -0.581 2.592zm5.502 1.842zm-0.181-1.121zm33.091 10.856l-5.479 5.476c-3.248 2.98-6.9 0.432-7.576-0.087l-18.643-18.645 14.941-15.075-2.035 2.053 18.707 18.706c0.46 0.592 3.097 4.287 0.085 7.572zm-15.209-28.054zm-0.843-0.143l0.066 0.012a4.19 4.19 0 0 1 -0.066 -0.012z"/><path d="m104.16 6.002c-36.408 0-65.922 29.514-65.922 65.922 0 33.517 25.02 61.172 57.398 65.354v26.224s57.439-21.243 71.969-73.622c0.078-0.283 0.139-0.538 0.211-0.812 0.113-0.424 0.225-0.85 0.33-1.277 0.064-0.263 0.119-0.514 0.178-0.769a66.07 66.07 0 0 0 1.758 -15.098c0-36.408-29.514-65.922-65.922-65.922zm57.348 79.422l-0.006 0.027-0.006 0.027-0.029 0.13c-0.039 0.17-0.076 0.339-0.119 0.515-0.094 0.376-0.191 0.751-0.301 1.161l-0.104 0.4a9.602 9.602 0 0 1 -0.082 0.324c-5.564 20.056-18.52 37.7-38.506 52.442-7.373 5.438-14.408 9.464-19.719 12.175v-21.5l-6.104-0.788c-29.243-3.777-51.295-28.889-51.295-58.412 0-32.49 26.432-58.922 58.922-58.922 32.488 0 58.922 26.432 58.922 58.922a59.082 59.082 0 0 1 -1.573 13.501z"/></g><path d="m54.583 188c-2.791 0-9.989-0.62-16.554-6.364-0.714-0.625-1.706-1.404-2.854-2.306-9.426-7.406-29.041-22.817-35.453-58.543l-0.074-0.409 0.024-0.414c0.044-0.752 0.746-7.564 11.631-15.313 0.877-0.617 3.907-2.592 6.756-2.592 1.708 0 3.194 0.688 4.184 1.938 1.804 2.277 14.666 18.498 14.666 18.498l0.219 0.311c1.206 1.915 1.847 5.714-1.246 8.431l-5.893 5.893c-0.175 2.112-0.198 7.26 3.086 11.099 3.692 4.317 7.507 5.789 9.28 6.268l5.486-2.743c0.676-0.383 2.952-1.553 5.512-1.553 2.286 0 4.272 0.951 5.593 2.678 2.114 2.764 12.504 15.63 12.609 15.76l0.155 0.207c1.115 1.609 2.333 5.149-0.168 8.208-1.447 1.769-6.505 7.7-10.872 9.778-1.607 0.763-3.712 1.167-6.087 1.168zm-47.863-67.86c6.051 32.683 24.086 46.854 32.78 53.684 1.226 0.964 2.285 1.796 3.139 2.543 4.912 4.298 10.384 4.632 11.944 4.632 1.511 0 2.582-0.254 3.081-0.491 2.11-1.005 5.722-4.579 8.284-7.674l-0.004-0.01c-1.394-1.72-10.351-12.82-12.5-15.62a1.063 1.063 0 0 0 -0.088 -0.003c-0.736 0-1.79 0.481-2.071 0.648l-0.218 0.118-7.644 3.823-1.082-0.154c-1.333-0.189-8.297-1.508-14.583-8.856-6.438-7.527-4.608-17.515-4.527-17.937l0.203-1.055 7.528-7.527-13.502-17.03c-0.611 0.237-1.467 0.688-2.119 1.142-6.793 4.833-8.333 8.792-8.621 9.771z" fill="#3A3A3A"/><path d="m78.443 103.54c-3.452 0-6.065-0.598-6.175-0.623a2.5 2.5 0 0 1 -1.218 -4.187l7.384-7.516c-1.037-3.845-3.336-5.357-4.659-5.925l-8.295 7.259a2.503 2.503 0 0 1 -3.993 -1.018c-3.848-10.457 2.48-18.293 2.751-18.622 3.726-4.185 8.533-6.359 13.962-6.359 2.78 0 5.162 0.574 6.663 1.052l16.766-16.765c-1.013-3.43-2.457-11.534 3.543-18.471 3.143-3.634 7.293-5.556 12.002-5.556 4.837 0 8.664 2.029 8.825 2.116 0.255 0.137 0.484 0.317 0.677 0.533l0.186 0.207c0.89 0.993 0.845 2.508-0.104 3.446l-6.803 6.729c0.789 2.879 3.028 4.535 4.465 5.33l8.222-7.403a2.5 2.5 0 0 1 4.103 1.272c2.123 8.809 0.478 15.606-5.033 20.783-2.57 2.414-6.353 3.638-11.242 3.638-2.789 0-5.324-0.407-6.839-0.714l-16.523 16.65c0.729 3.181 1.631 10.62-3.439 17.574-3.133 4.296-8.405 6.567-15.245 6.567zm-0.196-5.001c3.651 0.015 8.631-0.714 11.4-4.512 4.944-6.781 2.438-14.214 2.329-14.527a2.518 2.518 0 0 1 0.582 -2.593l18.5-18.667a2.501 2.501 0 0 1 2.43 -0.653c0.03 0.008 3.293 0.873 6.982 0.873 2.458 0 5.811-0.396 7.818-2.283 3.288-3.088 4.681-6.778 4.309-11.642l-6.049 5.447a2.505 2.505 0 0 1 -2.473 0.511c-0.338-0.114-8.295-2.891-9.307-11.191a2.496 2.496 0 0 1 0.724 -2.08l5.047-4.993a14.37 14.37 0 0 0 -3.365 -0.421c-3.259 0-6.024 1.288-8.221 3.826-5.651 6.536-2.192 14.793-2.157 14.876 0.405 0.94 0.196 2.033-0.528 2.756l-19 19a2.5 2.5 0 0 1 -2.817 0.501c-0.018-0.008-2.735-1.22-6.25-1.22-3.998 0-7.404 1.536-10.125 4.566-0.347 0.442-3.282 4.372-2.759 9.932l6.204-5.428a2.506 2.506 0 0 1 2.027 -0.589c0.337 0.052 8.291 1.389 10.082 11.536a2.498 2.498 0 0 1 -0.679 2.187l-4.704 4.788z" fill="#F0C42E"/><g fill="#3A3A3A"><path d="m78.921 54.025l9.237 10.282 3.54-3.541-13.285-14.79-2.735 3.949-7.276-10.624 4.732-4.732 10.625 7.276-3.95 2.734 14.791 13.286 3.541-3.541-10.283-9.236 4.717-3.266-20.042-13.724-10.601 10.603 13.724 20.041zm38.229 9.255a37.19 37.19 0 0 1 -3.517 -0.534l-2.034 2.053 18.706 18.706c0.46 0.592 3.097 4.287 0.084 7.572l-5.478 5.476c-3.248 2.98-6.901 0.432-7.576-0.087l-18.63-18.645-1.563 1.578c0.245 1.07 0.505 2.63 0.555 4.485l16.217 16.218 0.173 0.158c1.521 1.26 4.318 2.725 7.45 2.725 2.228 0 4.625-0.741 6.853-2.824l5.518-5.516 0.102-0.103c5.012-5.358 2.257-11.699 0.099-14.303l-16.94-16.958z"/></g><path d="m98.023 7c32.489 0 58.922 26.432 58.922 58.922 0 4.508-0.529 9.05-1.573 13.5l-0.006 0.027-0.007 0.027-0.029 0.13c-0.038 0.17-0.076 0.339-0.118 0.515-0.094 0.376-0.191 0.751-0.302 1.161l-0.103 0.4c-0.026 0.108-0.054 0.216-0.083 0.324-5.564 20.056-18.52 37.7-38.506 52.442-7.373 5.438-14.408 9.464-19.719 12.175v-21.5l-6.104-0.788c-29.243-3.777-51.294-28.889-51.294-58.412-0.002-32.486 26.43-58.918 58.919-58.918m0-7c-36.407 0-65.921 29.514-65.921 65.922 0 33.517 25.02 61.172 57.398 65.354v26.22s57.439-21.243 71.97-73.622c0.078-0.283 0.138-0.538 0.21-0.812 0.114-0.424 0.225-0.85 0.331-1.277 0.063-0.263 0.119-0.514 0.177-0.769a66.014 66.014 0 0 0 1.758 -15.098c-0.01-36.408-29.52-65.922-65.927-65.922z" fill="#3A3A3A"/></svg></svg>
